  0
SECTION
  2
HEADER
  9
$ACADVER
  1
AC1009
  9
$FILLMODE
 70
0
  9
$EXTMIN
 10
0.0000
 20
-0.0000
 30
0.0000
  9
$EXTMAX
 10
108.0000
 20
29.9167
 30
0.0000
  0
ENDSEC
  0
SECTION
  2
TABLES
  0
TABLE
  2
LTYPE
 70
1
  0
LTYPE
  2
CONTINUOUS
 70
64
  3
Solid line
 72
65
 73
0
 40
0
  0
ENDTAB
  0
TABLE
  2
LAYER
 70
255
  0
LAYER
  2
1
 70
64
 62
22
  6
CONTINUOUS
  0
LAYER
  2
16
 70
64
 62
175
  6
CONTINUOUS
  0
LAYER
  2
17
 70
64
 62
82
  6
CONTINUOUS
  0
LAYER
  2
18
 70
64
 62
82
  6
CONTINUOUS
  0
LAYER
  2
19
 70
64
 62
53
  6
CONTINUOUS
  0
LAYER
  2
20
 70
64
 62
30
  6
CONTINUOUS
  0
LAYER
  2
21
 70
64
 62
253
  6
CONTINUOUS
  0
LAYER
  2
22
 70
64
 62
253
  6
CONTINUOUS
  0
LAYER
  2
23
 70
64
 62
7
  6
CONTINUOUS
  0
LAYER
  2
24
 70
64
 62
7
  6
CONTINUOUS
  0
LAYER
  2
25
 70
64
 62
253
  6
CONTINUOUS
  0
LAYER
  2
26
 70
64
 62
253
  6
CONTINUOUS
  0
LAYER
  2
27
 70
64
 62
253
  6
CONTINUOUS
  0
LAYER
  2
28
 70
64
 62
253
  6
CONTINUOUS
  0
LAYER
  2
30
 70
64
 62
253
  6
CONTINUOUS
  0
LAYER
  2
39
 70
64
 62
22
  6
CONTINUOUS
  0
LAYER
  2
40
 70
64
 62
175
  6
CONTINUOUS
  0
LAYER
  2
41
 70
64
 62
22
  6
CONTINUOUS
  0
LAYER
  2
42
 70
64
 62
175
  6
CONTINUOUS
  0
LAYER
  2
43
 70
64
 62
82
  6
CONTINUOUS
  0
LAYER
  2
45
 70
64
 62
253
  6
CONTINUOUS
  0
LAYER
  2
48
 70
64
 62
253
  6
CONTINUOUS
  0
LAYER
  2
49
 70
64
 62
253
  6
CONTINUOUS
  0
LAYER
  2
51
 70
64
 62
253
  6
CONTINUOUS
  0
LAYER
  2
52
 70
64
 62
253
  6
CONTINUOUS
  0
LAYER
  2
100
 70
64
 62
253
  6
CONTINUOUS
  0
LAYER
  2
101
 70
64
 62
253
  6
CONTINUOUS
  0
LAYER
  2
102
 70
64
 62
253
  6
CONTINUOUS
  0
LAYER
  2
103
 70
64
 62
253
  6
CONTINUOUS
  0
LAYER
  2
104
 70
64
 62
253
  6
CONTINUOUS
  0
LAYER
  2
105
 70
64
 62
253
  6
CONTINUOUS
  0
LAYER
  2
106
 70
64
 62
253
  6
CONTINUOUS
  0
LAYER
  2
107
 70
64
 62
253
  6
CONTINUOUS
  0
LAYER
  2
108
 70
64
 62
253
  6
CONTINUOUS
  0
LAYER
  2
109
 70
64
 62
253
  6
CONTINUOUS
  0
LAYER
  2
110
 70
64
 62
253
  6
CONTINUOUS
  0
LAYER
  2
111
 70
64
 62
253
  6
CONTINUOUS
  0
LAYER
  2
112
 70
64
 62
253
  6
CONTINUOUS
  0
LAYER
  2
113
 70
64
 62
253
  6
CONTINUOUS
  0
LAYER
  2
116
 70
64
 62
253
  6
CONTINUOUS
  0
LAYER
  2
118
 70
64
 62
253
  6
CONTINUOUS
  0
LAYER
  2
121
 70
64
 62
253
  6
CONTINUOUS
  0
LAYER
  2
122
 70
64
 62
253
  6
CONTINUOUS
  0
LAYER
  2
123
 70
64
 62
253
  6
CONTINUOUS
  0
LAYER
  2
124
 70
64
 62
253
  6
CONTINUOUS
  0
LAYER
  2
125
 70
64
 62
253
  6
CONTINUOUS
  0
LAYER
  2
126
 70
64
 62
253
  6
CONTINUOUS
  0
LAYER
  2
127
 70
64
 62
253
  6
CONTINUOUS
  0
LAYER
  2
128
 70
64
 62
253
  6
CONTINUOUS
  0
LAYER
  2
129
 70
64
 62
253
  6
CONTINUOUS
  0
LAYER
  2
131
 70
64
 62
253
  6
CONTINUOUS
  0
LAYER
  2
132
 70
64
 62
253
  6
CONTINUOUS
  0
LAYER
  2
144
 70
64
 62
253
  6
CONTINUOUS
  0
LAYER
  2
150
 70
64
 62
253
  6
CONTINUOUS
  0
LAYER
  2
151
 70
64
 62
253
  6
CONTINUOUS
  0
LAYER
  2
152
 70
64
 62
253
  6
CONTINUOUS
  0
LAYER
  2
153
 70
64
 62
253
  6
CONTINUOUS
  0
LAYER
  2
154
 70
64
 62
253
  6
CONTINUOUS
  0
LAYER
  2
155
 70
64
 62
253
  6
CONTINUOUS
  0
LAYER
  2
199
 70
64
 62
253
  6
CONTINUOUS
  0
ENDTAB
  0
ENDSEC
  0
SECTION
  2
BLOCKS
  0
BLOCK
  8
0
  2
RECT
 70
64
 10
0.0000
 20
0.0000
 30
0.0000
  3
RECT
  0
SOLID
  8
0
 10
-0.5000
 20
-0.5000
 30
0.0000
 11
0.5000
 21
-0.5000
 31
0.0000
 12
-0.5000
 22
0.5000
 32
0.0000
 13
0.5000
 23
0.5000
 33
0.0000
  0
ENDBLK
  8
0
  0
BLOCK
  8
0
  2
PIE
 70
64
 10
0.0000
 20
0.0000
 30
0.0000
  3
PIE
  0
CIRCLE
  8
0
 10
0.0000
 20
0.0000
 30
0.0000
 40
0.5000
  0
ENDBLK
  8
0
  0
BLOCK
  8
0
  2
OCTAGONP
 70
64
 10
0.0000
 20
0.0000
 30
0.0000
  3
OCTAGONP
  0
POLYLINE
  8
0
 66
1
 10
0.0000
 20
0.0000
 30
0.0000
 40
0.0000
 41
0.0000
 70
1
  0
VERTEX
  8
0
 10
-0.5000
 20
-0.2071
 30
0.0000
  0
VERTEX
  8
0
 10
-0.5000
 20
0.2071
 30
0.0000
  0
VERTEX
  8
0
 10
-0.2071
 20
0.5000
 30
0.0000
  0
VERTEX
  8
0
 10
0.2071
 20
0.5000
 30
0.0000
  0
VERTEX
  8
0
 10
0.5000
 20
0.2071
 30
0.0000
  0
VERTEX
  8
0
 10
0.5000
 20
-0.2071
 30
0.0000
  0
VERTEX
  8
0
 10
0.2071
 20
-0.5000
 30
0.0000
  0
VERTEX
  8
0
 10
-0.2071
 20
-0.5000
 30
0.0000
  0
SEQEND
  8
0
  0
ENDBLK
  8
0
  0
BLOCK
  8
0
  2
SQUAREP
 70
64
 10
0.0000
 20
0.0000
 30
0.0000
  3
SQUAREP
  0
SOLID
  8
0
 10
-0.5000
 20
-0.5000
 30
0.0000
 11
0.5000
 21
-0.5000
 31
0.0000
 12
-0.5000
 22
0.5000
 32
0.0000
 13
0.5000
 23
0.5000
 33
0.0000
  0
ENDBLK
  8
0
  0
BLOCK
  8
0
  2
ROUNDP
 70
64
 10
0.0000
 20
0.0000
 30
0.0000
  3
ROUNDP
  0
CIRCLE
  8
0
 10
0.0000
 20
0.0000
 30
0.0000
 40
0.5000
  0
ENDBLK
  8
0
  0
BLOCK
  8
0
  2
ANNULUSP
 70
64
 10
0.0000
 20
0.0000
 30
0.0000
  3
ANNULUSP
  0
CIRCLE
  8
0
 10
0.0000
 20
0.0000
 30
0.0000
 40
0.5000
  0
ENDBLK
  8
0
  0
BLOCK
  8
0
  2
THERMALP
 70
64
 10
0.0000
 20
0.0000
 30
0.0000
  3
THERMALP
  0
LINE
  8
0
 10
-0.2379
 20
0.4500
 30
0.0000
 11
0.2379
 21
0.4500
 31
0.0000
  0
LINE
  8
0
 10
0.4500
 20
0.2379
 30
0.0000
 11
0.4500
 21
-0.2379
 31
0.0000
  0
LINE
  8
0
 10
0.2379
 20
-0.4500
 30
0.0000
 11
-0.2379
 21
-0.4500
 31
0.0000
  0
LINE
  8
0
 10
-0.4500
 20
-0.2379
 30
0.0000
 11
-0.4500
 21
0.2379
 31
0.0000
  0
ENDBLK
  8
0
  0
BLOCK
  8
0
  2
OCTAGONV
 70
64
 10
0.0000
 20
0.0000
 30
0.0000
  3
OCTAGONV
  0
POLYLINE
  8
0
 66
1
 10
0.0000
 20
0.0000
 30
0.0000
 40
0.0000
 41
0.0000
 70
1
  0
VERTEX
  8
0
 10
-0.5000
 20
-0.2071
 30
0.0000
  0
VERTEX
  8
0
 10
-0.5000
 20
0.2071
 30
0.0000
  0
VERTEX
  8
0
 10
-0.2071
 20
0.5000
 30
0.0000
  0
VERTEX
  8
0
 10
0.2071
 20
0.5000
 30
0.0000
  0
VERTEX
  8
0
 10
0.5000
 20
0.2071
 30
0.0000
  0
VERTEX
  8
0
 10
0.5000
 20
-0.2071
 30
0.0000
  0
VERTEX
  8
0
 10
0.2071
 20
-0.5000
 30
0.0000
  0
VERTEX
  8
0
 10
-0.2071
 20
-0.5000
 30
0.0000
  0
SEQEND
  8
0
  0
ENDBLK
  8
0
  0
BLOCK
  8
0
  2
SQUAREV
 70
64
 10
0.0000
 20
0.0000
 30
0.0000
  3
SQUAREV
  0
SOLID
  8
0
 10
-0.5000
 20
-0.5000
 30
0.0000
 11
0.5000
 21
-0.5000
 31
0.0000
 12
-0.5000
 22
0.5000
 32
0.0000
 13
0.5000
 23
0.5000
 33
0.0000
  0
ENDBLK
  8
0
  0
BLOCK
  8
0
  2
ROUNDV
 70
64
 10
0.0000
 20
0.0000
 30
0.0000
  3
ROUNDV
  0
CIRCLE
  8
0
 10
0.0000
 20
0.0000
 30
0.0000
 40
0.5000
  0
ENDBLK
  8
0
  0
BLOCK
  8
0
  2
ANNULUSV
 70
64
 10
0.0000
 20
0.0000
 30
0.0000
  3
ANNULUSV
  0
CIRCLE
  8
0
 10
0.0000
 20
0.0000
 30
0.0000
 40
0.5000
  0
ENDBLK
  8
0
  0
BLOCK
  8
0
  2
THERMALV
 70
64
 10
0.0000
 20
0.0000
 30
0.0000
  3
THERMALV
  0
LINE
  8
0
 10
-0.2379
 20
0.4500
 30
0.0000
 11
0.2379
 21
0.4500
 31
0.0000
  0
LINE
  8
0
 10
0.4500
 20
0.2379
 30
0.0000
 11
0.4500
 21
-0.2379
 31
0.0000
  0
LINE
  8
0
 10
0.2379
 20
-0.4500
 30
0.0000
 11
-0.2379
 21
-0.4500
 31
0.0000
  0
LINE
  8
0
 10
-0.4500
 20
-0.2379
 30
0.0000
 11
-0.4500
 21
0.2379
 31
0.0000
  0
ENDBLK
  8
0
  0
ENDSEC
  0
SECTION
  2
ENTITIES
  0
LINE
  8
20
 10
0.0000
 20
0.0000
 30
0.0000
 11
100.3300
 21
0.0000
 31
0.0000
  0
ARC
  8
20
 10
100.3550
 20
7.6450
 30
0.0000
 40
7.6450
 50
269.8126
 51
359.8126
  0
LINE
  8
20
 10
108.0000
 20
7.6200
 30
0.0000
 11
108.0000
 21
20.3200
 31
0.0000
  0
ARC
  8
20
 10
100.3250
 20
20.3250
 30
0.0000
 40
7.6750
 50
359.9627
 51
89.9627
  0
LINE
  8
20
 10
100.3300
 20
28.0000
 30
0.0000
 11
0.0000
 21
28.0000
 31
0.0000
  0
LINE
  8
20
 10
0.0000
 20
28.0000
 30
0.0000
 11
0.0000
 21
0.0000
 31
0.0000
  0
TEXT
  7
ISOCP
  8
22
 10
79.0000
 20
22.0000
 30
0.0000
 40
1.7780
  1
ON
 71
2
  0
INSERT
  8
30
  2
RECT
 10
37.2500
 20
14.0000
 30
0.0000
 41
74.5000
 42
28.0000
 43
1.0000
 50
0.0000
  0
POINT
  8
24
 10
84.0000
 20
23.0000
 30
0.0000
  0
LINE
  8
22
 10
79.5000
 20
21.5000
 30
0.0000
 11
88.5000
 21
21.5000
 31
0.0000
  0
LINE
  8
22
 10
88.5000
 20
21.5000
 30
0.0000
 11
88.5000
 21
24.5000
 31
0.0000
  0
LINE
  8
22
 10
88.5000
 20
24.5000
 30
0.0000
 11
79.5000
 21
24.5000
 31
0.0000
  0
LINE
  8
22
 10
79.5000
 20
24.5000
 30
0.0000
 11
79.5000
 21
21.5000
 31
0.0000
  0
LINE
  8
22
 10
81.7500
 20
22.2500
 30
0.0000
 11
81.7500
 21
23.7500
 31
0.0000
  0
LINE
  8
22
 10
81.7500
 20
23.7500
 30
0.0000
 11
86.2500
 21
23.7500
 31
0.0000
  0
LINE
  8
22
 10
86.2500
 20
23.7500
 30
0.0000
 11
86.2500
 21
22.2500
 31
0.0000
  0
LINE
  8
22
 10
86.2500
 20
22.2500
 30
0.0000
 11
81.7500
 21
22.2500
 31
0.0000
  0
INSERT
  8
22
  2
RECT
 10
82.5000
 20
23.0000
 30
0.0000
 41
1.5000
 42
1.5000
 43
1.0000
 50
0.0000
  0
INSERT
  8
16
  2
RECT
 10
81.5000
 20
25.7500
 30
0.0000
 41
2.5000
 42
1.2000
 43
1.0000
 50
270.0000
  0
INSERT
  8
30
  2
RECT
 10
81.5000
 20
25.7500
 30
0.0000
 41
2.7032
 42
1.4032
 43
1.0000
 50
270.0000
  0
INSERT
  8
16
  2
RECT
 10
84.0000
 20
25.7500
 30
0.0000
 41
2.5000
 42
1.2000
 43
1.0000
 50
270.0000
  0
INSERT
  8
30
  2
RECT
 10
84.0000
 20
25.7500
 30
0.0000
 41
2.7032
 42
1.4032
 43
1.0000
 50
270.0000
  0
INSERT
  8
16
  2
RECT
 10
86.5000
 20
25.7500
 30
0.0000
 41
2.5000
 42
1.2000
 43
1.0000
 50
270.0000
  0
INSERT
  8
30
  2
RECT
 10
86.5000
 20
25.7500
 30
0.0000
 41
2.7032
 42
1.4032
 43
1.0000
 50
270.0000
  0
INSERT
  8
16
  2
RECT
 10
81.5000
 20
20.2500
 30
0.0000
 41
2.5000
 42
1.2000
 43
1.0000
 50
270.0000
  0
INSERT
  8
30
  2
RECT
 10
81.5000
 20
20.2500
 30
0.0000
 41
2.7032
 42
1.4032
 43
1.0000
 50
270.0000
  0
INSERT
  8
16
  2
RECT
 10
84.0000
 20
20.2500
 30
0.0000
 41
2.5000
 42
1.2000
 43
1.0000
 50
270.0000
  0
INSERT
  8
30
  2
RECT
 10
84.0000
 20
20.2500
 30
0.0000
 41
2.7032
 42
1.4032
 43
1.0000
 50
270.0000
  0
INSERT
  8
16
  2
RECT
 10
86.5000
 20
20.2500
 30
0.0000
 41
2.5000
 42
1.2000
 43
1.0000
 50
270.0000
  0
INSERT
  8
30
  2
RECT
 10
86.5000
 20
20.2500
 30
0.0000
 41
2.7032
 42
1.4032
 43
1.0000
 50
270.0000
  0
POINT
  8
24
 10
38.0000
 20
14.0000
 30
0.0000
  0
LINE
  8
22
 10
1.7500
 20
25.2500
 30
0.0000
 11
1.7500
 21
2.7500
 31
0.0000
  0
LINE
  8
22
 10
1.7500
 20
2.7500
 30
0.0000
 11
74.2500
 21
2.7500
 31
0.0000
  0
LINE
  8
22
 10
74.2500
 20
2.7500
 30
0.0000
 11
74.2500
 21
9.0000
 31
0.0000
  0
LINE
  8
22
 10
74.2500
 20
9.0000
 30
0.0000
 11
74.2500
 21
19.0000
 31
0.0000
  0
LINE
  8
22
 10
74.2500
 20
19.0000
 30
0.0000
 11
74.2500
 21
25.2500
 31
0.0000
  0
LINE
  8
22
 10
74.2500
 20
25.2500
 30
0.0000
 11
1.7500
 21
25.2500
 31
0.0000
  0
LINE
  8
22
 10
1.7500
 20
25.2500
 30
0.0000
 11
0.2500
 21
25.2500
 31
0.0000
  0
LINE
  8
22
 10
0.2500
 20
25.2500
 30
0.0000
 11
0.2500
 21
2.7500
 31
0.0000
  0
LINE
  8
22
 10
0.2500
 20
2.7500
 30
0.0000
 11
1.7500
 21
2.7500
 31
0.0000
  0
LINE
  8
22
 10
74.2500
 20
9.0000
 30
0.0000
 11
78.7500
 21
11.0000
 31
0.0000
  0
LINE
  8
22
 10
78.7500
 20
11.0000
 30
0.0000
 11
78.7500
 21
17.0000
 31
0.0000
  0
LINE
  8
22
 10
78.7500
 20
17.0000
 30
0.0000
 11
74.2500
 21
19.0000
 31
0.0000
  0
LINE
  8
22
 10
50.3112
 20
15.7526
 30
0.0000
 11
50.3112
 21
12.2474
 31
0.0000
  0
LINE
  8
22
 10
50.3112
 20
12.2474
 30
0.0000
 11
48.7534
 21
12.2474
 31
0.0000
  0
LINE
  8
22
 10
47.5264
 20
15.7526
 30
0.0000
 11
47.5264
 21
12.2474
 31
0.0000
  0
LINE
  8
22
 10
47.9159
 20
12.2474
 30
0.0000
 11
47.1369
 21
12.2474
 31
0.0000
  0
LINE
  8
22
 10
47.9159
 20
15.7526
 30
0.0000
 11
47.1369
 21
15.7526
 31
0.0000
  0
LINE
  8
22
 10
44.7557
 20
14.1947
 30
0.0000
 11
44.1715
 21
14.1947
 31
0.0000
  0
LINE
  8
22
 10
44.1715
 20
14.1947
 30
0.0000
 11
44.1715
 21
12.2474
 31
0.0000
  0
LINE
  8
22
 10
44.1715
 20
12.2474
 30
0.0000
 11
45.3399
 21
12.2474
 31
0.0000
  0
ARC
  8
22
 10
45.3399
 20
13.0263
 30
0.0000
 40
0.7789
 50
270.0000
 51
0.0000
  0
LINE
  8
22
 10
46.1188
 20
13.0263
 30
0.0000
 11
46.1188
 21
14.9737
 31
0.0000
  0
ARC
  8
22
 10
45.3399
 20
14.9737
 30
0.0000
 40
0.7789
 50
0.0000
 51
90.0000
  0
LINE
  8
22
 10
45.3399
 20
15.7526
 30
0.0000
 11
44.1715
 21
15.7526
 31
0.0000
  0
LINE
  8
22
 10
43.0708
 20
12.2474
 30
0.0000
 11
43.0708
 21
15.7526
 31
0.0000
  0
LINE
  8
22
 10
43.0708
 20
14.1947
 30
0.0000
 11
41.1235
 21
14.1947
 31
0.0000
  0
LINE
  8
22
 10
41.1235
 20
15.7526
 30
0.0000
 11
41.1235
 21
12.2474
 31
0.0000
  0
LINE
  8
22
 10
39.3349
 20
12.2474
 30
0.0000
 11
39.3349
 21
15.7526
 31
0.0000
  0
LINE
  8
22
 10
40.3086
 20
15.7526
 30
0.0000
 11
38.3612
 21
15.7526
 31
0.0000
  0
LINE
  8
22
 10
36.3123
 20
12.2474
 30
0.0000
 11
35.1439
 21
15.7526
 31
0.0000
  0
LINE
  8
22
 10
35.1439
 20
15.7526
 30
0.0000
 11
33.9755
 21
12.2474
 31
0.0000
  0
LINE
  8
22
 10
34.2676
 20
13.1237
 30
0.0000
 11
36.0202
 21
13.1237
 31
0.0000
  0
LINE
  8
22
 10
33.1679
 20
12.2474
 30
0.0000
 11
33.1679
 21
15.7526
 31
0.0000
  0
LINE
  8
22
 10
33.1679
 20
15.7526
 30
0.0000
 11
32.1942
 21
15.7526
 31
0.0000
  0
ARC
  8
22
 10
32.1942
 20
14.7789
 30
0.0000
 40
0.9737
 50
90.0000
 51
270.0000
  0
LINE
  8
22
 10
32.1942
 20
13.8053
 30
0.0000
 11
33.1679
 21
13.8053
 31
0.0000
  0
LINE
  8
22
 10
31.2205
 20
12.2474
 30
0.0000
 11
31.9995
 21
13.8053
 31
0.0000
  0
LINE
  8
22
 10
28.6556
 20
12.2474
 30
0.0000
 11
30.2135
 21
12.2474
 31
0.0000
  0
LINE
  8
22
 10
30.2135
 20
12.2474
 30
0.0000
 11
30.2135
 21
15.7526
 31
0.0000
  0
LINE
  8
22
 10
30.2135
 20
15.7526
 30
0.0000
 11
28.6556
 21
15.7526
 31
0.0000
  0
LINE
  8
22
 10
30.2135
 20
14.1947
 30
0.0000
 11
29.0451
 21
14.1947
 31
0.0000
  0
LINE
  8
22
 10
28.0256
 20
12.2474
 30
0.0000
 11
26.8572
 21
15.7526
 31
0.0000
  0
LINE
  8
22
 10
26.8572
 20
15.7526
 30
0.0000
 11
25.6888
 21
12.2474
 31
0.0000
  0
LINE
  8
22
 10
25.9809
 20
13.1237
 30
0.0000
 11
27.7335
 21
13.1237
 31
0.0000
  0
TEXT
  7
ISOCP
  8
22
 10
27.8400
 20
19.0800
 30
0.0000
 40
1.2700
  1
DIFFUSER SIDE DOWN
 71
2
 72
2
 73
3
 11
27.8400
 21
19.0800
 31
0.0000
  0
INSERT
  8
16
  2
RECT
 10
84.0000
 20
12.0000
 30
0.0000
 41
1.2700
 42
0.6350
 43
1.0000
 50
0.0000
  0
INSERT
  8
30
  2
RECT
 10
84.0000
 20
12.0000
 30
0.0000
 41
1.4732
 42
0.8382
 43
1.0000
 50
0.0000
  0
INSERT
  8
16
  2
RECT
 10
84.0000
 20
16.0000
 30
0.0000
 41
1.2700
 42
0.6350
 43
1.0000
 50
0.0000
  0
INSERT
  8
30
  2
RECT
 10
84.0000
 20
16.0000
 30
0.0000
 41
1.4732
 42
0.8382
 43
1.0000
 50
0.0000
  0
POINT
  8
24
 10
97.7900
 20
13.9700
 30
0.0000
  0
LINE
  8
22
 10
93.2150
 20
3.4300
 30
0.0000
 11
102.3650
 21
3.4300
 31
0.0000
  0
LINE
  8
22
 10
102.3650
 20
3.4300
 30
0.0000
 11
105.4100
 21
6.4800
 31
0.0000
  0
LINE
  8
22
 10
105.4100
 20
6.4800
 30
0.0000
 11
105.4100
 21
21.4600
 31
0.0000
  0
LINE
  8
22
 10
105.4100
 20
21.4600
 30
0.0000
 11
102.3650
 21
24.5100
 31
0.0000
  0
LINE
  8
22
 10
102.3650
 20
24.5100
 30
0.0000
 11
93.2150
 21
24.5100
 31
0.0000
  0
LINE
  8
22
 10
93.2150
 20
24.5100
 30
0.0000
 11
90.1700
 21
21.4600
 31
0.0000
  0
LINE
  8
22
 10
93.2150
 20
3.4300
 30
0.0000
 11
90.1700
 21
6.4800
 31
0.0000
  0
CIRCLE
  8
16
 10
97.7900
 20
13.9700
 30
0.0000
 40
8.5000
  0
CIRCLE
  8
30
 10
97.7900
 20
13.9700
 30
0.0000
 40
8.7000
  0
INSERT
  8
16
  2
RECT
 10
97.7900
 20
13.9700
 30
0.0000
 41
2.0000
 42
2.0000
 43
1.0000
 50
90.0000
  0
INSERT
  8
30
  2
RECT
 10
97.7900
 20
13.9700
 30
0.0000
 41
2.2032
 42
2.2032
 43
1.0000
 50
90.0000
  0
INSERT
  8
16
  2
RECT
 10
97.7900
 20
2.9850
 30
0.0000
 41
5.0800
 42
2.7900
 43
1.0000
 50
180.0000
  0
INSERT
  8
30
  2
RECT
 10
97.7900
 20
2.9850
 30
0.0000
 41
5.2832
 42
2.9932
 43
1.0000
 50
180.0000
  0
INSERT
  8
16
  2
RECT
 10
97.7900
 20
24.9550
 30
0.0000
 41
5.0800
 42
2.7900
 43
1.0000
 50
180.0000
  0
INSERT
  8
30
  2
RECT
 10
97.7900
 20
24.9550
 30
0.0000
 41
5.2832
 42
2.9932
 43
1.0000
 50
180.0000
  0
LINE
  8
16
 10
98.0000
 20
14.0000
 30
0.0000
 11
88.0000
 21
14.0000
 31
0.0000
  0
LINE
  8
16
 10
88.0000
 20
14.0000
 30
0.0000
 11
84.0000
 21
18.0000
 31
0.0000
  0
LINE
  8
16
 10
84.0000
 20
18.0000
 30
0.0000
 11
84.0000
 21
20.5000
 31
0.0000
  0
LINE
  8
19
 10
98.0000
 20
14.0000
 30
0.0000
 11
97.7900
 21
13.9700
 31
0.0000
  0
LINE
  8
19
 10
84.0000
 20
20.2500
 30
0.0000
 11
84.0000
 21
20.5000
 31
0.0000
  0
LINE
  8
19
 10
84.0000
 20
25.7500
 30
0.0000
 11
84.0000
 21
20.5000
 31
0.0000
  0
LINE
  8
16
 10
98.0000
 20
3.0000
 30
0.0000
 11
89.5000
 21
3.0000
 31
0.0000
  0
LINE
  8
16
 10
89.5000
 20
3.0000
 30
0.0000
 11
84.0000
 21
8.5000
 31
0.0000
  0
LINE
  8
16
 10
84.0000
 20
8.5000
 30
0.0000
 11
84.0000
 21
12.0000
 31
0.0000
  0
LINE
  8
19
 10
84.0000
 20
12.0000
 30
0.0000
 11
97.7900
 21
24.9550
 31
0.0000
  0
LINE
  8
19
 10
97.7900
 20
2.9850
 30
0.0000
 11
98.0000
 21
3.0000
 31
0.0000
  0
LINE
  8
16
 10
84.0000
 20
16.0000
 30
0.0000
 11
81.5000
 21
18.5000
 31
0.0000
  0
LINE
  8
16
 10
81.5000
 20
18.5000
 30
0.0000
 11
81.5000
 21
20.0000
 31
0.0000
  0
LINE
  8
19
 10
81.5000
 20
20.2500
 30
0.0000
 11
81.5000
 21
25.7500
 31
0.0000
  0
LINE
  8
19
 10
81.5000
 20
20.0000
 30
0.0000
 11
81.5000
 21
20.2500
 31
0.0000
  0
ENDSEC
  0
EOF
